<svg width="30" height="24" viewBox="0 0 30 24" fill="none" xmlns="http://www.w3.org/2000/svg">
<path d="M10.5 12C13.8141 12 16.5 9.31406 16.5 6C16.5 2.68594 13.8141 0 10.5 0C7.18593 0 4.5 2.68594 4.5 6C4.5 9.31406 7.18593 12 10.5 12ZM14.7 13.5H13.9172C12.8766 13.9781 11.7187 14.25 10.5 14.25C9.28125 14.25 8.12812 13.9781 7.08281 13.5H6.3C2.82187 13.5 0 16.3219 0 19.8V21.75C0 22.9922 1.00781 24 2.25 24H18.75C19.9922 24 21 22.9922 21 21.75V19.8C21 16.3219 18.1781 13.5 14.7 13.5ZM29.8406 7.48125L28.5375 6.16406C28.3219 5.94375 27.9703 5.94375 27.75 6.15937L22.8375 11.0344L20.7047 8.8875C20.4891 8.66719 20.1375 8.66719 19.9172 8.88281L18.6 10.1906C18.3797 10.4062 18.3797 10.7578 18.5953 10.9781L22.425 14.8359C22.6406 15.0562 22.9922 15.0563 23.2125 14.8406L29.8359 8.26875C30.0515 8.04844 30.0562 7.69688 29.8406 7.48125Z" fill="#263238"/>
</svg>
