<svg width="30" height="27" viewBox="0 0 30 27" fill="none" xmlns="http://www.w3.org/2000/svg">
<path d="M26.4753 14.8162C26.5331 14.3944 26.5717 13.9556 26.5717 13.5C26.5717 13.0444 26.5331 12.6056 26.456 12.1838L29.7153 9.95625C30.0046 9.75375 30.0818 9.3825 29.9082 9.09562L26.8224 4.42125C26.6296 4.1175 26.2246 4.01625 25.8774 4.1175L22.0395 5.4675C21.2294 4.9275 20.3808 4.48875 19.4358 4.15125L18.8572 0.57375C18.7994 0.23625 18.4715 0 18.0858 0H11.9142C11.5285 0 11.2199 0.23625 11.1621 0.57375L10.5835 4.15125C9.63845 4.48875 8.77057 4.94437 7.97984 5.4675L4.14189 4.1175C3.79474 3.99938 3.38973 4.1175 3.19687 4.42125L0.111079 9.09562C-0.0817823 9.39937 -0.00463738 9.75375 0.303941 9.95625L3.5633 12.1838C3.48616 12.6056 3.4283 13.0612 3.4283 13.5C3.4283 13.9388 3.46687 14.3944 3.54402 14.8162L0.284655 17.0438C-0.00463784 17.2463 -0.0817823 17.6175 0.0917932 17.9044L3.17758 22.5788C3.37044 22.8825 3.77545 22.9838 4.1226 22.8825L7.96055 21.5325C8.77057 22.0725 9.61916 22.5112 10.5642 22.8487L11.1428 26.4263C11.2199 26.7638 11.5285 27 11.9142 27H18.0858C18.4715 27 18.7994 26.7638 18.8379 26.4263L19.4165 22.8487C20.3616 22.5112 21.2294 22.0556 22.0202 21.5325L25.8581 22.8825C26.2053 23.0006 26.6103 22.8825 26.8031 22.5788L29.8889 17.9044C30.0818 17.6006 30.0046 17.2463 29.6961 17.0438L26.4753 14.8162ZM15 18.5625C11.8178 18.5625 9.21415 16.2844 9.21415 13.5C9.21415 10.7156 11.8178 8.4375 15 8.4375C18.1822 8.4375 20.7859 10.7156 20.7859 13.5C20.7859 16.2844 18.1822 18.5625 15 18.5625Z" fill="#263238"/>
</svg>
