<svg width="29" height="28" viewBox="0 0 29 28" fill="none" xmlns="http://www.w3.org/2000/svg">
<path d="M25.7778 2.8H19.0433C18.3667 1.176 16.5944 0 14.5 0C12.4056 0 10.6333 1.176 9.95667 2.8H3.22222C1.45 2.8 0 4.06 0 5.6V25.2C0 26.74 1.45 28 3.22222 28H25.7778C27.55 28 29 26.74 29 25.2V5.6C29 4.06 27.55 2.8 25.7778 2.8ZM14.5 2.8C15.3861 2.8 16.1111 3.43 16.1111 4.2C16.1111 4.97 15.3861 5.6 14.5 5.6C13.6139 5.6 12.8889 4.97 12.8889 4.2C12.8889 3.43 13.6139 2.8 14.5 2.8ZM11.2778 22.4L4.83333 16.8L7.105 14.826L11.2778 18.438L21.895 9.212L24.1667 11.2L11.2778 22.4Z" fill="#263238"/>
</svg>
